<?xml version="1.0" encoding="utf-8"?>
<!-- Generator: Adobe Illustrator 26.3.1, SVG Export Plug-In . SVG Version: 6.00 Build 0)  -->
<svg version="1.1" id="Layer_1" xmlns="http://www.w3.org/2000/svg" xmlns:xlink="http://www.w3.org/1999/xlink" x="0px" y="0px"
	 viewBox="0 0 590 42" style="enable-background:new 0 0 590 42;" xml:space="preserve">
<style type="text/css">
	.st0{fill:#FFFFFF;}
	.st1{fill:#AD9970;}
</style>
<path class="st0" d="M270.98,25.4h-13.78v-6.72h13.78V25.4z"/>
<path class="st1" d="M308.63,25.69c0,2.35-0.36,4.52-1.06,6.5c-0.71,1.98-1.76,3.7-3.17,5.16c-1.4,1.46-3.15,2.6-5.24,3.42
	c-2.09,0.82-4.5,1.23-7.23,1.23c-2.76,0-5.19-0.41-7.28-1.23c-2.09-0.82-3.84-1.96-5.24-3.42c-1.4-1.46-2.46-3.17-3.17-5.16
	c-0.71-1.98-1.06-4.15-1.06-6.5V1.32h8.74v24.04c0,1.23,0.2,2.37,0.59,3.42c0.39,1.05,0.94,1.95,1.65,2.72
	c0.71,0.77,1.56,1.36,2.55,1.79c0.99,0.43,2.06,0.64,3.22,0.64c1.16,0,2.22-0.21,3.19-0.64c0.97-0.43,1.81-1.03,2.52-1.79
	c0.71-0.77,1.26-1.67,1.65-2.72c0.39-1.05,0.59-2.19,0.59-3.42V1.32h8.74V25.69z"/>
<path class="st1" d="M334.13,11.01c-0.71-0.9-1.67-1.56-2.89-1.99c-1.21-0.43-2.36-0.64-3.45-0.64c-0.64,0-1.29,0.08-1.96,0.22
	c-0.67,0.15-1.31,0.38-1.91,0.7c-0.6,0.32-1.08,0.74-1.46,1.26c-0.37,0.52-0.56,1.16-0.56,1.91c0,1.2,0.45,2.11,1.34,2.75
	c0.9,0.64,2.03,1.18,3.39,1.63c1.36,0.45,2.83,0.9,4.4,1.34c1.57,0.45,3.03,1.08,4.4,1.91c1.36,0.82,2.49,1.92,3.39,3.31
	c0.9,1.38,1.34,3.23,1.34,5.55c0,2.2-0.41,4.13-1.23,5.77c-0.82,1.64-1.93,3.01-3.33,4.09c-1.4,1.08-3.03,1.89-4.88,2.41
	c-1.85,0.52-3.8,0.78-5.86,0.78c-2.58,0-4.97-0.39-7.17-1.18c-2.2-0.78-4.26-2.05-6.16-3.81l6.22-6.84c0.9,1.2,2.03,2.12,3.39,2.77
	c1.36,0.65,2.77,0.98,4.23,0.98c0.71,0,1.43-0.08,2.16-0.25c0.73-0.17,1.38-0.42,1.96-0.76c0.58-0.34,1.05-0.77,1.4-1.29
	c0.35-0.52,0.53-1.14,0.53-1.85c0-1.2-0.46-2.14-1.37-2.83c-0.92-0.69-2.06-1.28-3.45-1.77c-1.38-0.49-2.88-0.97-4.48-1.46
	c-1.61-0.49-3.1-1.14-4.48-1.96c-1.38-0.82-2.53-1.91-3.45-3.25c-0.92-1.34-1.37-3.12-1.37-5.32c0-2.13,0.42-4,1.26-5.6
	c0.84-1.61,1.96-2.95,3.36-4.03c1.4-1.08,3.02-1.9,4.85-2.44c1.83-0.54,3.72-0.81,5.66-0.81c2.24,0,4.41,0.32,6.5,0.95
	c2.09,0.64,3.98,1.7,5.66,3.19L334.13,11.01z"/>
<path class="st1" d="M345.06,1.32h14.79c1.72,0,3.45,0.12,5.18,0.36c1.74,0.24,3.3,0.73,4.68,1.46c1.38,0.73,2.5,1.75,3.36,3.05
	c0.86,1.31,1.29,3.05,1.29,5.21c0,2.24-0.63,4.1-1.88,5.58c-1.25,1.48-2.91,2.53-4.96,3.17v0.11c1.31,0.19,2.49,0.55,3.56,1.09
	c1.06,0.54,1.98,1.23,2.75,2.07c0.77,0.84,1.35,1.82,1.76,2.94c0.41,1.12,0.62,2.32,0.62,3.59c0,2.09-0.45,3.84-1.34,5.24
	c-0.9,1.4-2.05,2.53-3.47,3.39c-1.42,0.86-3.02,1.48-4.79,1.85c-1.77,0.37-3.54,0.56-5.3,0.56h-16.25V1.32z M353.8,17.18h6.33
	c0.67,0,1.34-0.07,1.99-0.22c0.65-0.15,1.24-0.39,1.77-0.73c0.52-0.34,0.94-0.78,1.26-1.34c0.32-0.56,0.48-1.23,0.48-2.02
	c0-0.82-0.18-1.5-0.53-2.05c-0.36-0.54-0.81-0.96-1.37-1.26c-0.56-0.3-1.2-0.51-1.91-0.64c-0.71-0.13-1.4-0.2-2.07-0.2h-5.94V17.18z
	 M353.8,33.59h7.84c0.67,0,1.35-0.07,2.05-0.22c0.69-0.15,1.32-0.41,1.88-0.78c0.56-0.37,1.02-0.86,1.37-1.46
	c0.35-0.6,0.53-1.33,0.53-2.19c0-0.93-0.23-1.69-0.7-2.27c-0.47-0.58-1.06-1.02-1.77-1.32c-0.71-0.3-1.48-0.5-2.3-0.62
	c-0.82-0.11-1.59-0.17-2.3-0.17h-6.61V33.59z"/>
<path class="st0" d="M191.4,0l11.98,0l17,27.79h0.11V0l8.81,0v39.99h-11.52l-17.45-28.47h-0.11v28.47h-8.81V0z"/>
<path class="st0" d="M240.51,7.8H229.1V0l31.63,0v7.8h-11.41v32.2h-8.81V7.8z"/>
<g>
	<path class="st1" d="M379.27,8.11h7.44V0.67h4.44v7.44h7.44v4.44h-7.44V20h-4.44v-7.44h-7.44V8.11z"/>
</g>
</svg>
