<?xml version="1.0" encoding="utf-8"?>
<!-- Generator: Adobe Illustrator 27.0.0, SVG Export Plug-In . SVG Version: 6.00 Build 0)  -->
<svg version="1.1" id="Layer_1" xmlns="http://www.w3.org/2000/svg" xmlns:xlink="http://www.w3.org/1999/xlink" x="0px" y="0px"
	 viewBox="0 0 510 42" style="enable-background:new 0 0 510 42;" xml:space="preserve">
<style type="text/css">
	.st0{fill:#FFFFFF;}
	.st1{fill:#AC9870;}
</style>
<g>
	<path class="st0" d="M116.7,0.7h12.2l17.3,28.2h0.1V0.7h8.9v40.6h-11.7l-17.7-28.9h-0.1v28.9h-8.9C116.7,41.3,116.7,0.7,116.7,0.7z
		"/>
	<path class="st0" d="M166.7,8.6h-11.6V0.7h32.1v7.9h-11.6v32.7h-8.9L166.7,8.6L166.7,8.6z"/>
	<path class="st0" d="M192.4,0.7h8.9v15.1h17.4V0.7h8.9v40.6h-8.9V23.8h-17.4v17.6h-8.9V0.7z"/>
	<path class="st0" d="M247.9,25.6h-14.1v-6.9h14.1V25.6z"/>
</g>
<path class="st0" d="M263,10.3l-8.1,7.2l-4.9-5.6l13.3-11.2h8v40.6H263V10.3L263,10.3z"/>
<path class="st0" d="M276.6,21c0-2.4,0.2-4.9,0.7-7.3c0.4-2.5,1.2-4.7,2.4-6.8s2.7-3.7,4.6-5s4.4-1.9,7.5-1.9s5.5,0.6,7.5,1.9
	c2,1.3,3.5,2.9,4.6,5s1.9,4.3,2.4,6.8s0.7,4.9,0.7,7.3s-0.2,4.9-0.7,7.3c-0.4,2.5-1.2,4.7-2.4,6.8c-1.1,2-2.7,3.7-4.6,5
	c-2,1.3-4.4,1.9-7.5,1.9c-3,0-5.5-0.6-7.5-1.9s-3.5-2.9-4.6-5c-1.1-2-1.9-4.3-2.4-6.8C276.8,25.9,276.6,23.4,276.6,21z M285.2,21
	c0,1.1,0,2.4,0.1,3.8c0.1,1.5,0.4,2.9,0.8,4.3c0.4,1.4,1.1,2.5,1.9,3.5c0.9,1,2.1,1.4,3.6,1.4c1.6,0,2.7-0.5,3.6-1.4
	c0.9-1,1.5-2.1,2-3.5c0.4-1.4,0.7-2.8,0.8-4.3c0.1-1.5,0.1-2.8,0.1-3.8s0-2.4-0.1-3.8c-0.1-1.5-0.4-2.9-0.8-4.3
	c-0.4-1.4-1.1-2.5-2-3.5c-0.9-1-2.1-1.4-3.6-1.4c-1.5,0-2.8,0.5-3.6,1.4c-0.9,1-1.5,2.1-1.9,3.5c-0.4,1.4-0.7,2.8-0.8,4.3
	S285.2,19.9,285.2,21z"/>
<path class="st0" d="M311.1,21c0-2.4,0.2-4.9,0.7-7.3c0.4-2.5,1.2-4.7,2.4-6.8s2.7-3.7,4.6-5c2-1.3,4.4-1.9,7.5-1.9
	c3,0,5.5,0.6,7.5,1.9c2,1.3,3.5,2.9,4.6,5s1.9,4.3,2.4,6.8c0.4,2.5,0.7,4.9,0.7,7.3s-0.2,4.9-0.7,7.3c-0.4,2.5-1.2,4.7-2.4,6.8
	c-1.1,2-2.7,3.7-4.6,5c-2,1.3-4.4,1.9-7.5,1.9c-3,0-5.5-0.6-7.5-1.9c-2-1.3-3.5-2.9-4.6-5c-1.1-2-1.9-4.3-2.4-6.8
	C311.3,25.9,311.1,23.4,311.1,21z M319.7,21c0,1.1,0,2.4,0.1,3.8c0.1,1.5,0.4,2.9,0.8,4.3c0.4,1.4,1.1,2.5,1.9,3.5
	c0.9,1,2.1,1.4,3.6,1.4s2.7-0.5,3.6-1.4c0.9-1,1.5-2.1,2-3.5c0.4-1.4,0.7-2.8,0.8-4.3c0.1-1.5,0.1-2.8,0.1-3.8s0-2.4-0.1-3.8
	c-0.1-1.5-0.4-2.9-0.8-4.3c-0.4-1.4-1.1-2.5-2-3.5s-2.1-1.4-3.6-1.4s-2.8,0.5-3.6,1.4c-0.9,1-1.5,2.1-1.9,3.5s-0.7,2.8-0.8,4.3
	C319.7,18.7,319.7,19.9,319.7,21z"/>
<path class="st1" d="M347.7,0.8h13.5l9.3,26.3h0.1l9.3-26.3h13.4v40.3h-8.9V10.2h-0.1l-10.6,30.9h-6.8l-10.2-30.9h-0.1v30.9h-8.9
	L347.7,0.8L347.7,0.8z"/>
</svg>
