<?xml version="1.0" encoding="utf-8"?>
<!-- Generator: Adobe Illustrator 27.0.0, SVG Export Plug-In . SVG Version: 6.00 Build 0)  -->
<svg version="1.1" id="Layer_2_00000137128738732624020670000003347974937928545213_"
	 xmlns="http://www.w3.org/2000/svg" xmlns:xlink="http://www.w3.org/1999/xlink" x="0px" y="0px" viewBox="0 0 526.9 159.5"
	 style="enable-background:new 0 0 526.9 159.5;" xml:space="preserve">
<style type="text/css">
	.st0{fill:#FFFFFF;}
	.st1{fill:#DB0032;}
</style>
<g>
	<g>
		<path class="st0" d="M122,13.4c-0.2-0.3-0.5-0.6-1-0.8s-0.8-0.2-1.2-0.2c-0.3,0-0.5,0-0.8,0.1c-0.2,0.1-0.5,0.1-0.7,0.3
			c-0.2,0.1-0.3,0.3-0.5,0.5c-0.1,0.2-0.2,0.5-0.2,0.7c0,0.4,0.2,0.8,0.5,1s0.7,0.4,1.1,0.6c0.4,0.2,0.9,0.3,1.4,0.5
			c0.5,0.1,1,0.4,1.4,0.6c0.4,0.3,0.8,0.6,1.1,1.1c0.3,0.5,0.4,1,0.4,1.8c0,0.7-0.1,1.3-0.4,1.8s-0.6,0.9-1,1.2
			c-0.4,0.3-0.9,0.6-1.5,0.8s-1.1,0.2-1.8,0.2c-0.8,0-1.5-0.1-2.3-0.4c-0.7-0.3-1.3-0.7-1.9-1.3l1.7-1.6c0.3,0.4,0.6,0.7,1.1,1
			c0.4,0.2,0.9,0.4,1.4,0.4c0.3,0,0.5,0,0.8-0.1c0.3-0.1,0.5-0.2,0.7-0.3s0.4-0.3,0.5-0.5s0.2-0.5,0.2-0.8c0-0.5-0.2-0.8-0.4-1.1
			c-0.3-0.2-0.7-0.5-1.1-0.6s-0.9-0.3-1.4-0.5c-0.5-0.1-1-0.4-1.4-0.6c-0.4-0.3-0.8-0.6-1.1-1.1c-0.3-0.4-0.4-1-0.4-1.8
			c0-0.6,0.1-1.2,0.4-1.7s0.6-0.9,1-1.2s0.9-0.5,1.5-0.7c0.6-0.1,1.1-0.2,1.7-0.2c0.7,0,1.3,0.1,1.9,0.3s1.2,0.5,1.7,1L122,13.4z"/>
		<path class="st0" d="M132.2,12.7h-3.9v-2h10v2h-3.9v10.6h-2.2L132.2,12.7L132.2,12.7z"/>
		<path class="st0" d="M143.4,10.7h4.4c0.6,0,1.2,0.1,1.8,0.2s1.1,0.3,1.5,0.6s0.8,0.6,1,1.1s0.4,1,0.4,1.8c0,0.9-0.2,1.7-0.8,2.3
			c-0.5,0.6-1.2,1-2.2,1.1l3.3,5.6h-2.7l-2.9-5.3h-1.6v5.3h-2.2L143.4,10.7L143.4,10.7z M147.4,16c0.3,0,0.6,0,1,0s0.6-0.1,0.9-0.2
			s0.5-0.3,0.7-0.5c0.2-0.2,0.2-0.5,0.2-1c0-0.4-0.1-0.7-0.2-0.9c-0.2-0.2-0.4-0.4-0.6-0.5c-0.2-0.1-0.5-0.2-0.8-0.2
			c-0.3,0-0.6,0-0.9,0h-1.9V16L147.4,16L147.4,16z"/>
		<path class="st0" d="M158.2,10.7h8.3v2h-6.1v3.1h5.8v2h-5.8v3.4h6.4v2h-8.7V10.7z"/>
		<path class="st0" d="M176.7,10.7h1.9l5.4,12.6h-2.6l-1.2-2.9h-5.5l-1.1,2.9h-2.5L176.7,10.7z M179.5,18.5l-1.9-5.1l-2,5.1H179.5z"
			/>
		<path class="st0" d="M189.1,10.7h3.4l3.4,8.8l3.4-8.8h3.4v12.6h-2.1V12.8h0l-3.8,10.5h-1.6l-3.8-10.5h0v10.5h-2.1L189.1,10.7
			L189.1,10.7z"/>
		<path class="st0" d="M209.1,10.7h8.3v2h-6.1v3.1h5.8v2h-5.8v3.4h6.4v2h-8.7V10.7z"/>
		<path class="st0" d="M223.5,10.7h4.4c0.6,0,1.2,0.1,1.8,0.2s1.1,0.3,1.5,0.6s0.8,0.6,1,1.1s0.4,1,0.4,1.8c0,0.9-0.2,1.7-0.8,2.3
			c-0.5,0.6-1.2,1-2.2,1.1l3.3,5.6h-2.7l-2.9-5.3h-1.6v5.3h-2.2L223.5,10.7L223.5,10.7z M227.5,16c0.3,0,0.6,0,1,0s0.6-0.1,0.9-0.2
			s0.5-0.3,0.7-0.5c0.2-0.2,0.2-0.5,0.2-1c0-0.4-0.1-0.7-0.2-0.9c-0.2-0.2-0.4-0.4-0.6-0.5c-0.2-0.1-0.5-0.2-0.8-0.2
			c-0.3,0-0.6,0-0.9,0h-1.9V16L227.5,16L227.5,16z"/>
		<path class="st0" d="M244.5,13.4c-0.2-0.3-0.5-0.6-1-0.8s-0.8-0.2-1.2-0.2c-0.3,0-0.5,0-0.8,0.1c-0.2,0.1-0.5,0.1-0.7,0.3
			c-0.2,0.1-0.3,0.3-0.5,0.5c-0.1,0.2-0.2,0.5-0.2,0.7c0,0.4,0.2,0.8,0.5,1s0.7,0.4,1.1,0.6c0.4,0.2,0.9,0.3,1.4,0.5
			c0.5,0.1,1,0.4,1.4,0.6c0.4,0.3,0.8,0.6,1.1,1.1c0.3,0.5,0.4,1,0.4,1.8c0,0.7-0.1,1.3-0.4,1.8s-0.6,0.9-1,1.2
			c-0.4,0.3-0.9,0.6-1.5,0.8s-1.1,0.2-1.8,0.2c-0.8,0-1.5-0.1-2.3-0.4c-0.7-0.3-1.3-0.7-1.9-1.3l1.7-1.6c0.3,0.4,0.6,0.7,1.1,1
			c0.4,0.2,0.9,0.4,1.4,0.4c0.3,0,0.5,0,0.8-0.1c0.3-0.1,0.5-0.2,0.7-0.3s0.4-0.3,0.5-0.5s0.2-0.5,0.2-0.8c0-0.5-0.2-0.8-0.4-1.1
			c-0.3-0.2-0.7-0.5-1.1-0.6s-0.9-0.3-1.4-0.5c-0.5-0.1-1-0.4-1.4-0.6c-0.4-0.3-0.8-0.6-1.1-1.1c-0.3-0.4-0.4-1-0.4-1.8
			c0-0.6,0.1-1.2,0.4-1.7s0.6-0.9,1-1.2s0.9-0.5,1.5-0.7c0.6-0.1,1.1-0.2,1.7-0.2c0.7,0,1.3,0.1,1.9,0.3s1.2,0.5,1.7,1L244.5,13.4z"
			/>
		<path class="st0" d="M265,10.7h1.9l5.4,12.6h-2.6l-1.2-2.9h-5.5l-1.1,2.9h-2.5L265,10.7z M267.8,18.5l-1.9-5.1l-2,5.1H267.8z"/>
		<path class="st0" d="M277.3,10.7h3l6.1,9.4h0v-9.4h2.2v12.6h-2.8l-6.2-9.7h0v9.7h-2.2L277.3,10.7L277.3,10.7z"/>
		<path class="st0" d="M295,10.7h5c0.8,0,1.6,0.1,2.4,0.4c0.8,0.3,1.5,0.6,2,1.2c0.6,0.5,1.1,1.2,1.4,2c0.4,0.8,0.5,1.7,0.5,2.8
			c0,1.1-0.2,2-0.6,2.8c-0.4,0.8-0.9,1.4-1.6,2c-0.7,0.5-1.4,0.9-2.2,1.2c-0.8,0.3-1.6,0.4-2.3,0.4H295L295,10.7L295,10.7z
			 M298.9,21.2c0.7,0,1.4-0.1,2-0.2s1.2-0.4,1.6-0.8s0.8-0.8,1.1-1.3c0.3-0.5,0.4-1.2,0.4-2c0-0.8-0.1-1.4-0.4-2s-0.6-1-1-1.3
			s-0.9-0.6-1.5-0.8c-0.6-0.2-1.2-0.2-1.9-0.2h-2v8.5L298.9,21.2L298.9,21.2z"/>
		<path class="st0" d="M332.1,22.4c-1.5,0.8-3.3,1.2-5.2,1.2c-1,0-1.9-0.2-2.7-0.5s-1.5-0.8-2.1-1.3c-0.6-0.6-1-1.3-1.4-2.1
			c-0.3-0.8-0.5-1.7-0.5-2.7c0-1,0.2-1.9,0.5-2.8c0.3-0.8,0.8-1.5,1.4-2.1s1.3-1,2.1-1.3s1.7-0.5,2.7-0.5c1,0,1.9,0.1,2.7,0.4
			c0.8,0.2,1.6,0.6,2.3,1.2l-1.7,1.7c-0.4-0.4-0.9-0.7-1.5-0.9c-0.6-0.2-1.2-0.3-1.8-0.3c-0.7,0-1.2,0.1-1.8,0.4s-1,0.5-1.4,1
			s-0.7,0.9-0.9,1.4c-0.2,0.5-0.3,1.1-0.3,1.8c0,0.7,0.1,1.3,0.3,1.9s0.5,1.1,0.9,1.5s0.8,0.7,1.4,1c0.5,0.2,1.1,0.4,1.8,0.4
			c0.6,0,1.1,0,1.6-0.2c0.5-0.1,1-0.3,1.3-0.5v-3h-2.6v-2h4.8L332.1,22.4L332.1,22.4z"/>
		<path class="st0" d="M342.4,10.7h1.9l5.4,12.6h-2.6l-1.2-2.9h-5.5l-1.1,2.9h-2.5L342.4,10.7z M345.2,18.5l-1.9-5.1l-2,5.1H345.2z"
			/>
		<path class="st0" d="M354.8,10.7h3.4l3.4,8.8l3.4-8.8h3.4v12.6h-2.1V12.8h0l-3.8,10.5h-1.6l-3.8-10.5h0v10.5h-2.1L354.8,10.7
			L354.8,10.7z"/>
		<path class="st0" d="M374.8,10.7h8.3v2H377v3.1h5.8v2H377v3.4h6.4v2h-8.7V10.7z"/>
		<path class="st0" d="M389.2,10.7h4.4c0.6,0,1.2,0.1,1.8,0.2c0.6,0.1,1.1,0.3,1.5,0.6s0.8,0.6,1,1.1s0.4,1,0.4,1.8
			c0,0.9-0.2,1.7-0.8,2.3c-0.5,0.6-1.2,1-2.2,1.1l3.3,5.6H396l-2.9-5.3h-1.6v5.3h-2.2L389.2,10.7L389.2,10.7z M393.2,16
			c0.3,0,0.6,0,1,0s0.6-0.1,0.9-0.2s0.5-0.3,0.7-0.5c0.2-0.2,0.2-0.5,0.2-1c0-0.4-0.1-0.7-0.2-0.9c-0.2-0.2-0.4-0.4-0.6-0.5
			c-0.2-0.1-0.5-0.2-0.8-0.2c-0.3,0-0.6,0-0.9,0h-1.9V16L393.2,16L393.2,16z"/>
		<path class="st0" d="M410.2,13.4c-0.2-0.3-0.5-0.6-1-0.8s-0.8-0.2-1.2-0.2c-0.3,0-0.5,0-0.8,0.1c-0.2,0.1-0.5,0.1-0.7,0.3
			c-0.2,0.1-0.3,0.3-0.5,0.5c-0.1,0.2-0.2,0.5-0.2,0.7c0,0.4,0.2,0.8,0.5,1s0.7,0.4,1.1,0.6c0.4,0.2,0.9,0.3,1.4,0.5
			c0.5,0.1,1,0.4,1.4,0.6c0.4,0.3,0.8,0.6,1.1,1.1c0.3,0.5,0.4,1,0.4,1.8c0,0.7-0.1,1.3-0.4,1.8s-0.6,0.9-1,1.2
			c-0.4,0.3-0.9,0.6-1.5,0.8s-1.1,0.2-1.8,0.2c-0.8,0-1.5-0.1-2.3-0.4c-0.7-0.3-1.3-0.7-1.9-1.3l1.7-1.6c0.3,0.4,0.6,0.7,1.1,1
			c0.4,0.2,0.9,0.4,1.4,0.4c0.3,0,0.5,0,0.8-0.1c0.3-0.1,0.5-0.2,0.7-0.3s0.4-0.3,0.5-0.5s0.2-0.5,0.2-0.8c0-0.5-0.2-0.8-0.4-1.1
			c-0.3-0.2-0.7-0.5-1.1-0.6s-0.9-0.3-1.4-0.5c-0.5-0.1-1-0.4-1.4-0.6c-0.4-0.3-0.8-0.6-1.1-1.1c-0.3-0.4-0.4-1-0.4-1.8
			c0-0.6,0.1-1.2,0.4-1.7s0.6-0.9,1-1.2s0.9-0.5,1.5-0.7c0.6-0.1,1.1-0.2,1.7-0.2c0.7,0,1.3,0.1,1.9,0.3s1.2,0.5,1.7,1L410.2,13.4z"
			/>
	</g>
	<g>
		<g>
			<path class="st0" d="M158.6,90.7c0-9.5-9.4-15.4-18.2-15.4H115v50.6h15.2v-24.4l11.7,24l0.2,0.4h17.3l-12.1-21.3
				C154.3,102.5,158.6,97.3,158.6,90.7z M130.2,82.6h4.5c4.9,0,8.3,3.4,8.3,8.3c0,7.1-4.1,8.5-11.1,8.5h-1.7V82.6z M307.2,117.8v8.1
				h-33.6V75.2h33.7v8.1h-18.5v12.5h16.5v8.1h-16.5v13.9L307.2,117.8L307.2,117.8z M242.4,75.2H220v50.6h24.7
				c15.1,0,24.9-9.6,24.9-24.4C269.6,86.3,258.1,75.2,242.4,75.2z M253.9,99.5c0,9.4-3.8,19.4-14.3,19.4h-5.1V82.2h4.6
				C249.3,82.2,253.9,90.9,253.9,99.5z M214.6,78.7l-4.2-4.2l-5.2,5.2c-4.6-3.6-10.4-5.8-16.9-5.8c-15.1,0-26.9,11.7-26.9,26.7
				c0,6.5,2.2,12.3,5.9,16.9l-5.1,5.1l4.2,4.2l5.2-5.2c4.5,3.5,10.3,5.6,16.7,5.6c15.1,0,26.9-11.7,26.9-26.7
				c0-6.4-2.2-12.1-5.8-16.7L214.6,78.7z M188.3,80.5c4.7,0,7.5,3.1,9,6.9l-19.8,19.8c-0.4-2.5-0.5-4.9-0.5-6.6
				C177.2,94.5,178.3,80.5,188.3,80.5z M199.1,94.2c0.3,2.4,0.4,4.7,0.4,6.3c0,6-1.1,20-11.2,20c-4.6,0-7.3-2.9-8.9-6.7L199.1,94.2z
				"/>
		</g>
		<g>
			<polygon class="st1" points="372.2,100.5 333.4,151.1 298.9,151.1 337.7,100.5 298.9,50 333.4,50 			"/>
			<polygon class="st1" points="377.8,93.3 411,50 376.5,50 360.6,70.8 			"/>
			<polygon class="st1" points="360.6,130.3 376.5,151.1 411,151.1 377.8,107.8 			"/>
		</g>
	</g>
</g>
</svg>
