<?xml version="1.0" encoding="utf-8"?>
<!-- Generator: Adobe Illustrator 27.0.0, SVG Export Plug-In . SVG Version: 6.00 Build 0)  -->
<svg version="1.1" id="Layer_1" xmlns="http://www.w3.org/2000/svg" xmlns:xlink="http://www.w3.org/1999/xlink" x="0px" y="0px"
	 viewBox="0 0 540 42" style="enable-background:new 0 0 540 42;" xml:space="preserve">
<style type="text/css">
	.st0{fill:#AD9970;}
</style>
<g>
	<g>
		<path d="M60.8,1.5h9.9l9.8,25.9h0.1l9.9-25.9h9.3L83.6,41h-7L60.8,1.5z"/>
		<path d="M105.6,1.5h8.7V41h-8.7V1.5z"/>
		<path d="M123.9,1.5H137c3.2,0,6.2,0.4,9,1.1c2.8,0.7,5.3,1.9,7.4,3.4s3.8,3.6,5.1,6.2c1.2,2.5,1.9,5.6,1.9,9.2
			c0,3.2-0.6,6-1.8,8.5c-1.2,2.4-2.8,4.5-4.9,6.1c-2.1,1.7-4.4,2.9-7.1,3.8c-2.7,0.9-5.5,1.3-8.4,1.3h-14.2V1.5z M132.6,33h4.5
			c2,0,3.9-0.2,5.6-0.6s3.2-1.1,4.5-2c1.3-1,2.3-2.2,3-3.7c0.7-1.5,1.1-3.4,1.1-5.7c0-1.9-0.4-3.6-1.1-5.1s-1.7-2.6-2.9-3.5
			c-1.2-0.9-2.7-1.6-4.3-2.1s-3.4-0.7-5.2-0.7h-5.1V33z"/>
		<path d="M168.3,1.5h26.8v8H177v7.4h17.1v8H177v8h19.1v8h-27.8V1.5z"/>
		<path d="M202.7,21.2c0-3.2,0.5-6,1.6-8.6s2.5-4.8,4.4-6.6c1.9-1.8,4.1-3.2,6.8-4.2s5.4-1.5,8.5-1.5c3.1,0,5.9,0.5,8.5,1.5
			s4.9,2.3,6.8,4.2c1.9,1.8,3.4,4,4.4,6.6c1.1,2.6,1.6,5.4,1.6,8.6s-0.5,6-1.6,8.6s-2.5,4.8-4.4,6.5c-1.9,1.8-4.1,3.2-6.8,4.2
			S227.1,42,224,42c-3.1,0-5.9-0.5-8.5-1.5s-4.9-2.3-6.8-4.2c-1.9-1.8-3.4-4-4.4-6.5S202.7,24.4,202.7,21.2z M211.8,21.2
			c0,1.9,0.3,3.6,0.9,5.1c0.6,1.5,1.4,2.9,2.5,4c1.1,1.1,2.4,2,3.9,2.6c1.5,0.6,3.2,1,5.1,1s3.5-0.3,5.1-1c1.5-0.6,2.8-1.5,3.9-2.6
			c1.1-1.1,1.9-2.5,2.5-4c0.6-1.5,0.9-3.2,0.9-5.1c0-1.8-0.3-3.5-0.9-5.1c-0.6-1.6-1.4-2.9-2.5-4s-2.4-2-3.9-2.7
			c-1.5-0.6-3.2-0.9-5.1-0.9s-3.5,0.3-5.1,0.9c-1.5,0.6-2.8,1.5-3.9,2.6s-1.9,2.5-2.5,4C212.1,17.7,211.8,19.4,211.8,21.2z"/>
	</g>
	<g>
		<path class="st0" d="M255,1.5h5.5l14.4,33.1l14.4-33.1h5.2V41h-3.7V6.2h-0.1L275.7,41h-1.6L258.8,6.2h-0.1V41H255L255,1.5L255,1.5
			z"/>
		<path class="st0" d="M306.7,1.5h3.7V41h-3.7V1.5z"/>
		<path class="st0" d="M355.5,34.8c-1.9,2.6-4.1,4.4-6.6,5.5c-2.5,1.1-5.2,1.7-8.1,1.7c-3,0-5.8-0.5-8.3-1.5s-4.7-2.5-6.4-4.3
			c-1.8-1.8-3.2-4-4.2-6.6s-1.5-5.3-1.5-8.3s0.5-5.8,1.5-8.3c1-2.5,2.4-4.7,4.2-6.6c1.8-1.8,3.9-3.3,6.4-4.3s5.3-1.6,8.3-1.6
			c2.7,0,5.2,0.5,7.5,1.4s4.4,2.5,6.1,4.8l-3,2.5c-1.2-1.9-2.8-3.2-4.7-4.1c-1.9-0.8-3.9-1.3-5.9-1.3c-2.6,0-4.9,0.5-6.9,1.3
			s-3.8,2.1-5.3,3.7c-1.5,1.6-2.6,3.4-3.4,5.5c-0.8,2.1-1.2,4.4-1.2,6.9s0.4,4.7,1.2,6.9c0.8,2.1,1.9,4,3.4,5.5s3.2,2.8,5.3,3.7
			s4.4,1.3,6.9,1.3c1,0,2-0.1,3.1-0.4c1.1-0.2,2.1-0.6,3.2-1.1c1-0.5,2-1.1,2.9-1.9c0.9-0.8,1.8-1.7,2.5-2.8L355.5,34.8z"/>
		<path class="st0" d="M363.9,1.5h10.4c0.5,0,1.2,0,2.1,0.1c0.9,0,1.9,0.1,2.9,0.3c1,0.2,2.1,0.5,3.2,0.9c1.1,0.4,2,1,2.9,1.8
			c0.9,0.8,1.6,1.8,2.1,3s0.8,2.6,0.8,4.3c0,1.9-0.3,3.5-1,4.7c-0.6,1.2-1.5,2.2-2.5,3c-1,0.8-2.1,1.3-3.3,1.7s-2.3,0.6-3.4,0.8
			l11.5,19h-4.2l-11.1-18.7h-6.9V41h-3.7L363.9,1.5L363.9,1.5z M367.6,18.9h7.8c1.9,0,3.5-0.2,4.7-0.7c1.2-0.5,2.1-1.1,2.8-1.8
			c0.7-0.7,1.1-1.5,1.4-2.3c0.2-0.8,0.4-1.6,0.4-2.2s-0.1-1.4-0.4-2.2s-0.7-1.6-1.4-2.3c-0.7-0.7-1.6-1.3-2.8-1.8s-2.8-0.7-4.7-0.7
			h-7.8V18.9z"/>
		<path class="st0" d="M396.2,21.2c0-3,0.5-5.8,1.5-8.3c1-2.5,2.4-4.7,4.2-6.6c1.8-1.8,3.9-3.3,6.4-4.3s5.3-1.6,8.3-1.6
			s5.8,0.5,8.3,1.6s4.7,2.5,6.4,4.3c1.8,1.8,3.2,4,4.2,6.6c1,2.5,1.5,5.3,1.5,8.3s-0.5,5.8-1.5,8.3c-1,2.5-2.4,4.7-4.2,6.6
			c-1.8,1.8-3.9,3.3-6.4,4.3s-5.3,1.5-8.3,1.5s-5.8-0.5-8.3-1.5s-4.7-2.5-6.4-4.3c-1.8-1.8-3.2-4-4.2-6.6
			C396.7,27,396.2,24.3,396.2,21.2z M399.8,21.2c0,2.5,0.4,4.7,1.2,6.9c0.8,2.1,1.9,4,3.4,5.5s3.2,2.8,5.3,3.7s4.4,1.3,6.9,1.3
			c2.6,0,4.9-0.5,6.9-1.3s3.8-2.1,5.3-3.7s2.6-3.4,3.3-5.5c0.8-2.1,1.2-4.4,1.2-6.9s-0.4-4.7-1.2-6.9c-0.8-2.1-1.9-4-3.3-5.5
			s-3.2-2.8-5.3-3.7s-4.4-1.3-6.9-1.3c-2.6,0-4.9,0.4-6.9,1.3s-3.8,2.1-5.3,3.7c-1.5,1.6-2.6,3.4-3.4,5.5S399.8,18.8,399.8,21.2z"/>
	</g>
	<g>
		<path class="st0" d="M455.3,0h4.2v41.9h-12.6V8.4C446.9,3.8,450.7,0,455.3,0z"/>
	</g>
	<g>
		<path class="st0" d="M470.8,41.9h-4.2V0h12.6v33.5C479.2,38.1,475.4,41.9,470.8,41.9z"/>
	</g>
</g>
</svg>
